<svg xmlns="http://www.w3.org/2000/svg" version="1.1" xmlns:xlink="http://www.w3.org/1999/xlink" xmlns:svgjs="http://svgjs.dev/svgjs" width="2000" height="176" viewBox="0 0 2000 176"><g transform="matrix(1,0,0,1,-1.2121212121213603,0.25964847832844384)"><svg viewBox="0 0 396 35" data-background-color="#ffffff" preserveAspectRatio="xMidYMid meet" height="176" width="2000" xmlns="http://www.w3.org/2000/svg" xmlns:xlink="http://www.w3.org/1999/xlink"><g id="tight-bounds" transform="matrix(1,0,0,1,0.24000000000003752,-0.05163464057667966)"><svg viewBox="0 0 395.5199999999999 35.10326928115335" height="35.10326928115335" width="395.5199999999999"><g><svg viewBox="0 0 456.70528577892185 40.533597868182625" height="35.10326928115335" width="395.5199999999999"><g><rect width="3.6371758073887657" height="40.533597868182625" x="48.02670733438977" y="0" fill="#111111" opacity="1" stroke-width="0" stroke="transparent" fill-opacity="1" class="rect-yte-0" data-fill-palette-color="primary" rx="1%" id="yte-0" data-palette-color="#111111"></rect></g><g transform="matrix(1,0,0,1,61.1852857789219,0.10082984544323992)"><svg viewBox="0 0 395.52 40.331938177296145" height="40.331938177296145" width="395.52"><g id="textblocktransform"><svg viewBox="0 0 395.52 40.331938177296145" height="40.331938177296145" width="395.52" id="textblock"><g><svg viewBox="0 0 395.52 40.331938177296145" height="40.331938177296145" width="395.52"><g transform="matrix(1,0,0,1,0,0)"><svg width="395.52" viewBox="3.1 -32.03 412.25 42.04" height="40.331938177296145" data-palette-color="#111111"><path d="M13.65-23.1Q16.04-23.1 18.07-22.02 20.09-20.95 21.63-18.95L21.63-18.95 21.63-20.9Q21.63-21.8 21.98-22.18 22.34-22.56 23.17-22.56L23.17-22.56 27.05-22.56Q27.88-22.56 28.23-22.18 28.59-21.8 28.59-20.9L28.59-20.9Q28.59-20 28.23-19.62 27.88-19.24 27.05-19.24L27.05-19.24 25.05-19.24 25.05 0.73Q25.05 3.64 23.82 5.73 22.58 7.81 20.24 8.91 17.9 10.01 14.6 10.01L14.6 10.01Q12.26 10.01 9.86 9.61 7.47 9.2 5.4 8.45L5.4 8.45Q4.44 8.11 4.44 7.15L4.44 7.15Q4.44 6.76 4.64 6.18L4.64 6.18Q5.08 4.83 6.03 4.83L6.03 4.83Q6.3 4.83 6.57 4.93L6.57 4.93Q8.47 5.62 10.57 6.01 12.67 6.4 14.6 6.4L14.6 6.4Q17.97 6.4 19.68 4.8 21.39 3.2 21.39 0.42L21.39 0.42 21.39-4.49Q18.36-0.68 13.65-0.68L13.65-0.68Q10.62-0.68 8.23-2.04 5.83-3.39 4.47-5.93 3.1-8.47 3.1-11.89L3.1-11.89Q3.1-15.31 4.47-17.85 5.83-20.39 8.23-21.74 10.62-23.1 13.65-23.1L13.65-23.1ZM13.89-19.48Q11.72-19.48 10.16-18.52 8.59-17.55 7.78-15.83 6.96-14.11 6.96-11.89L6.96-11.89Q6.96-9.67 7.78-7.95 8.59-6.23 10.16-5.26 11.72-4.3 13.89-4.3L13.89-4.3Q16.06-4.3 17.76-5.2 19.46-6.1 20.42-7.82 21.39-9.55 21.39-11.89L21.39-11.89Q21.39-14.23 20.42-15.95 19.46-17.68 17.76-18.58 16.06-19.48 13.89-19.48L13.89-19.48ZM45.6-32.03Q46.43-32.03 46.79-31.65 47.14-31.27 47.14-30.37L47.14-30.37 47.14-3.32 54.98-3.32Q55.81-3.32 56.16-2.94 56.52-2.56 56.52-1.66L56.52-1.66Q56.52-0.76 56.16-0.38 55.81 0 54.98 0L54.98 0 35.84 0Q35.01 0 34.65-0.38 34.3-0.76 34.3-1.66L34.3-1.66Q34.3-2.56 34.65-2.94 35.01-3.32 35.84-3.32L35.84-3.32 43.48-3.32 43.48-28.71 36.81-28.71Q35.98-28.71 35.63-29.09 35.28-29.47 35.28-30.37L35.28-30.37Q35.28-31.27 35.63-31.65 35.98-32.03 36.81-32.03L36.81-32.03 45.6-32.03ZM74.95-23.1Q78.29-23.1 80.98-21.58 83.66-20.07 85.19-17.37 86.71-14.67 86.71-11.28L86.71-11.28Q86.71-7.89 85.19-5.19 83.66-2.49 80.98-0.98 78.29 0.54 74.95 0.54L74.95 0.54Q71.6 0.54 68.92-0.98 66.23-2.49 64.7-5.19 63.18-7.89 63.18-11.28L63.18-11.28Q63.18-14.67 64.7-17.37 66.23-20.07 68.92-21.58 71.6-23.1 74.95-23.1L74.95-23.1ZM74.95-19.48Q72.58-19.48 70.78-18.44 68.99-17.41 68.01-15.54 67.04-13.67 67.04-11.28L67.04-11.28Q67.04-8.89 68.01-7.02 68.99-5.15 70.78-4.11 72.58-3.08 74.95-3.08L74.95-3.08Q77.31-3.08 79.11-4.11 80.9-5.15 81.88-7.02 82.86-8.89 82.86-11.28L82.86-11.28Q82.86-13.67 81.88-15.54 80.9-17.41 79.11-18.44 77.31-19.48 74.95-19.48L74.95-19.48ZM96.99-32.03Q97.82-32.03 98.17-31.65 98.53-31.27 98.53-30.37L98.53-30.37 98.53-19.07Q101.68-23.1 106.27-23.1L106.27-23.1Q109.29-23.1 111.69-21.67 114.08-20.24 115.45-17.57 116.81-14.89 116.81-11.28L116.81-11.28Q116.81-7.67 115.45-4.99 114.08-2.32 111.69-0.89 109.29 0.54 106.27 0.54L106.27 0.54Q103.87 0.54 101.85-0.54 99.82-1.61 98.28-3.61L98.28-3.61 98.28-1.66Q98.28-0.76 97.93-0.38 97.58 0 96.75 0L96.75 0 92.86 0Q92.03 0 91.68-0.38 91.33-0.76 91.33-1.66L91.33-1.66Q91.33-2.56 91.68-2.94 92.03-3.32 92.86-3.32L92.86-3.32 94.87-3.32 94.87-28.71 92.38-28.71Q91.55-28.71 91.19-29.09 90.84-29.47 90.84-30.37L90.84-30.37Q90.84-31.27 91.19-31.65 91.55-32.03 92.38-32.03L92.38-32.03 96.99-32.03ZM106.02-19.48Q103.85-19.48 102.15-18.51 100.46-17.53 99.49-15.67 98.53-13.82 98.53-11.28L98.53-11.28Q98.53-8.74 99.49-6.88 100.46-5.03 102.15-4.05 103.85-3.08 106.02-3.08L106.02-3.08Q108.2-3.08 109.76-4.11 111.32-5.15 112.14-7.01 112.96-8.86 112.96-11.28L112.96-11.28Q112.96-13.7 112.14-15.55 111.32-17.41 109.76-18.44 108.2-19.48 106.02-19.48L106.02-19.48ZM135-23.1Q139.59-23.1 141.88-21.04 144.18-18.99 144.18-14.97L144.18-14.97 144.18-5.25Q144.18-3.32 145.79-3.32L145.79-3.32 146.65-3.32Q147.48-3.32 147.83-2.94 148.18-2.56 148.18-1.66L148.18-1.66Q148.18-0.76 147.83-0.38 147.48 0 146.65 0L146.65 0 145.08 0Q143.5 0 142.36-0.79 141.23-1.59 140.88-3.13L140.88-3.13Q138.88-1.37 136.55-0.42 134.22 0.54 131.61 0.54L131.61 0.54Q129.14 0.54 127.25-0.31 125.36-1.15 124.28-2.76 123.21-4.37 123.21-6.59L123.21-6.59Q123.21-10.45 125.97-12.29 128.73-14.14 133.1-14.14L133.1-14.14Q136.98-14.14 140.52-12.89L140.52-12.89 140.52-14.97Q140.52-17.33 139.19-18.44 137.86-19.56 134.9-19.56L134.9-19.56Q133.07-19.56 131.09-19.04 129.12-18.53 127.33-17.63L127.33-17.63Q126.92-17.41 126.58-17.41L126.58-17.41Q125.77-17.41 125.23-18.58L125.23-18.58Q124.97-19.17 124.97-19.56L124.97-19.56Q124.97-20.41 125.87-20.87L125.87-20.87Q127.92-21.95 130.28-22.52 132.63-23.1 135-23.1L135-23.1ZM133.12-10.69Q130.31-10.69 128.69-9.73 127.07-8.76 127.07-6.67L127.07-6.67Q127.07-4.88 128.3-3.89 129.53-2.91 131.75-2.91L131.75-2.91Q136.61-2.91 140.52-6.93L140.52-6.93 140.52-9.59Q138.86-10.13 136.95-10.41 135.05-10.69 133.12-10.69L133.12-10.69ZM165.51-32.03Q166.34-32.03 166.7-31.65 167.05-31.27 167.05-30.37L167.05-30.37 167.05-3.32 174.89-3.32Q175.72-3.32 176.07-2.94 176.43-2.56 176.43-1.66L176.43-1.66Q176.43-0.76 176.07-0.38 175.72 0 174.89 0L174.89 0 155.75 0Q154.92 0 154.57-0.38 154.21-0.76 154.21-1.66L154.21-1.66Q154.21-2.56 154.57-2.94 154.92-3.32 155.75-3.32L155.75-3.32 163.39-3.32 163.39-28.71 156.73-28.71Q155.9-28.71 155.54-29.09 155.19-29.47 155.19-30.37L155.19-30.37Q155.19-31.27 155.54-31.65 155.9-32.03 156.73-32.03L156.73-32.03 165.51-32.03ZM225.06-23.1Q228.6-23.1 231.1-21.67 233.6-20.24 234.94-17.71 236.29-15.19 236.48-11.89L236.48-11.89Q236.48-11.06 236.13-10.72 235.77-10.38 234.94-10.38L234.94-10.38 217.27-10.38Q217.44-6.74 219.43-4.87 221.42-3 225.06-3L225.06-3Q227.3-3 229.5-3.58 231.7-4.15 233.36-5.1L233.36-5.1Q233.77-5.32 234.11-5.32L234.11-5.32Q234.97-5.32 235.5-4.03L235.5-4.03Q235.72-3.52 235.72-3.1L235.72-3.1Q235.72-2.12 234.65-1.59L234.65-1.59Q232.77-0.63 230.21-0.05 227.64 0.54 225.06 0.54L225.06 0.54Q221.37 0.54 218.76-0.88 216.14-2.29 214.78-4.96 213.41-7.62 213.41-11.28L213.41-11.28Q213.41-14.77 214.9-17.46 216.39-20.14 219.03-21.62 221.66-23.1 225.06-23.1L225.06-23.1ZM225.06-19.56Q222.05-19.56 220.09-18.03 218.12-16.5 217.51-13.79L217.51-13.79 232.43-13.79Q231.92-16.6 230.07-18.08 228.23-19.56 225.06-19.56L225.06-19.56ZM262.5-23.1Q263.51-23.1 263.92-22.73 264.34-22.36 264.34-21.51L264.34-21.51 264.34-16.87Q264.34-16.02 263.92-15.65 263.51-15.28 262.5-15.28L262.5-15.28Q261.67-15.28 261.33-15.92L261.33-15.92Q260.28-17.92 258.28-18.74 256.28-19.56 253.2-19.56L253.2-19.56Q250.83-19.56 249.5-18.71 248.17-17.87 248.17-16.36L248.17-16.36Q248.17-15.58 248.67-15.09 249.17-14.6 250.15-14.28L250.15-14.28Q250.96-14.01 252.02-13.87 253.08-13.72 254.77-13.55L254.77-13.55Q257.13-13.28 258.59-13.05 260.04-12.82 261.33-12.35L261.33-12.35Q263.29-11.65 264.37-10.3 265.46-8.96 265.46-6.76L265.46-6.76Q265.46-4.57 264.35-2.92 263.24-1.27 261.1-0.37 258.96 0.54 255.99 0.54L255.99 0.54Q253.35 0.54 251.35-0.2 249.35-0.93 247.86-2.42L247.86-2.42 247.86-1.05Q247.86-0.2 247.44 0.17 247.03 0.54 246.02 0.54L246.02 0.54Q245.02 0.54 244.61 0.17 244.19-0.2 244.19-1.05L244.19-1.05 244.19-6.91Q244.19-7.76 244.61-8.13 245.02-8.5 246.02-8.5L246.02-8.5Q246.54-8.5 246.83-8.26 247.12-8.03 247.34-7.5L247.34-7.5Q248.22-5.15 250.27-4.08 252.32-3 255.74-3L255.74-3Q258.57-3 260.09-4.03 261.6-5.05 261.6-6.76L261.6-6.76Q261.6-7.59 261.06-8.13 260.53-8.67 259.53-9.01L259.53-9.01Q258.67-9.28 257.56-9.46 256.45-9.64 254.74-9.81L254.74-9.81Q252.45-10.06 250.91-10.33 249.37-10.6 248.08-11.11L248.08-11.11Q246.29-11.82 245.3-13.07 244.32-14.33 244.32-16.36L244.32-16.36Q244.32-18.48 245.43-20.01 246.54-21.53 248.5-22.31 250.47-23.1 252.96-23.1L252.96-23.1Q255.33-23.1 257.29-22.39 259.26-21.68 260.67-20.41L260.67-20.41 260.67-21.51Q260.67-22.36 261.09-22.73 261.5-23.1 262.5-23.1L262.5-23.1ZM280.98-29.52Q281.98-29.52 282.4-29.15 282.81-28.78 282.81-27.93L282.81-27.93 282.81-20.61 292.85-20.61Q293.68-20.61 294.03-20.23 294.39-19.85 294.39-18.95L294.39-18.95Q294.39-18.04 294.03-17.66 293.68-17.29 292.85-17.29L292.85-17.29 282.81-17.29 282.81-8.4Q282.81-5.62 283.78-4.32 284.74-3.03 287.14-3.03L287.14-3.03Q288.77-3.03 290.58-3.69 292.38-4.35 294.07-5.44L294.07-5.44Q294.41-5.69 294.83-5.69L294.83-5.69Q295.66-5.69 296.24-4.57L296.24-4.57Q296.56-3.93 296.56-3.47L296.56-3.47Q296.56-2.69 295.75-2.2L295.75-2.2Q293.85-1 291.51-0.23 289.16 0.54 287.14 0.54L287.14 0.54Q282.99 0.54 281.07-1.62 279.15-3.78 279.15-8.08L279.15-8.08 279.15-17.29 274.2-17.29Q273.37-17.29 273.01-17.66 272.66-18.04 272.66-18.95L272.66-18.95Q272.66-19.85 273.01-20.23 273.37-20.61 274.2-20.61L274.2-20.61 279.15-20.61 279.15-27.93Q279.15-28.78 279.57-29.15 279.98-29.52 280.98-29.52L280.98-29.52ZM314.87-23.1Q319.46-23.1 321.75-21.04 324.05-18.99 324.05-14.97L324.05-14.97 324.05-5.25Q324.05-3.32 325.66-3.32L325.66-3.32 326.51-3.32Q327.34-3.32 327.7-2.94 328.05-2.56 328.05-1.66L328.05-1.66Q328.05-0.76 327.7-0.38 327.34 0 326.51 0L326.51 0 324.95 0Q323.36 0 322.23-0.79 321.09-1.59 320.75-3.13L320.75-3.13Q318.75-1.37 316.42-0.42 314.09 0.54 311.47 0.54L311.47 0.54Q309.01 0.54 307.12-0.31 305.22-1.15 304.15-2.76 303.08-4.37 303.08-6.59L303.08-6.59Q303.08-10.45 305.83-12.29 308.59-14.14 312.96-14.14L312.96-14.14Q316.85-14.14 320.39-12.89L320.39-12.89 320.39-14.97Q320.39-17.33 319.05-18.44 317.72-19.56 314.77-19.56L314.77-19.56Q312.94-19.56 310.96-19.04 308.98-18.53 307.2-17.63L307.2-17.63Q306.79-17.41 306.44-17.41L306.44-17.41Q305.64-17.41 305.1-18.58L305.1-18.58Q304.83-19.17 304.83-19.56L304.83-19.56Q304.83-20.41 305.74-20.87L305.74-20.87Q307.79-21.95 310.14-22.52 312.5-23.1 314.87-23.1L314.87-23.1ZM312.99-10.69Q310.18-10.69 308.56-9.73 306.93-8.76 306.93-6.67L306.93-6.67Q306.93-4.88 308.17-3.89 309.4-2.91 311.62-2.91L311.62-2.91Q316.48-2.91 320.39-6.93L320.39-6.93 320.39-9.59Q318.73-10.13 316.82-10.41 314.92-10.69 312.99-10.69L312.99-10.69ZM340.94-29.52Q341.94-29.52 342.36-29.15 342.77-28.78 342.77-27.93L342.77-27.93 342.77-20.61 352.8-20.61Q353.63-20.61 353.99-20.23 354.34-19.85 354.34-18.95L354.34-18.95Q354.34-18.04 353.99-17.66 353.63-17.29 352.8-17.29L352.8-17.29 342.77-17.29 342.77-8.4Q342.77-5.62 343.73-4.32 344.7-3.03 347.09-3.03L347.09-3.03Q348.73-3.03 350.53-3.69 352.34-4.35 354.03-5.44L354.03-5.44Q354.37-5.69 354.78-5.69L354.78-5.69Q355.61-5.69 356.2-4.57L356.2-4.57Q356.52-3.93 356.52-3.47L356.52-3.47Q356.52-2.69 355.71-2.2L355.71-2.2Q353.81-1 351.46-0.23 349.12 0.54 347.09 0.54L347.09 0.54Q342.94 0.54 341.02-1.62 339.11-3.78 339.11-8.08L339.11-8.08 339.11-17.29 334.15-17.29Q333.32-17.29 332.97-17.66 332.61-18.04 332.61-18.95L332.61-18.95Q332.61-19.85 332.97-20.23 333.32-20.61 334.15-20.61L334.15-20.61 339.11-20.61 339.11-27.93Q339.11-28.78 339.52-29.15 339.94-29.52 340.94-29.52L340.94-29.52ZM374.95-23.1Q378.49-23.1 380.99-21.67 383.49-20.24 384.83-17.71 386.18-15.19 386.37-11.89L386.37-11.89Q386.37-11.06 386.02-10.72 385.66-10.38 384.83-10.38L384.83-10.38 367.16-10.38Q367.33-6.74 369.32-4.87 371.31-3 374.95-3L374.95-3Q377.19-3 379.39-3.58 381.59-4.15 383.25-5.1L383.25-5.1Q383.66-5.32 384-5.32L384-5.32Q384.86-5.32 385.39-4.03L385.39-4.03Q385.61-3.52 385.61-3.1L385.61-3.1Q385.61-2.12 384.54-1.59L384.54-1.59Q382.66-0.63 380.1-0.05 377.53 0.54 374.95 0.54L374.95 0.54Q371.26 0.54 368.65-0.88 366.03-2.29 364.67-4.96 363.3-7.62 363.3-11.28L363.3-11.28Q363.3-14.77 364.79-17.46 366.28-20.14 368.92-21.62 371.55-23.1 374.95-23.1L374.95-23.1ZM374.95-19.56Q371.94-19.56 369.98-18.03 368.01-16.5 367.4-13.79L367.4-13.79 382.32-13.79Q381.81-16.6 379.96-18.08 378.12-19.56 374.95-19.56L374.95-19.56ZM412.39-23.1Q413.4-23.1 413.81-22.73 414.23-22.36 414.23-21.51L414.23-21.51 414.23-16.87Q414.23-16.02 413.81-15.65 413.4-15.28 412.39-15.28L412.39-15.28Q411.56-15.28 411.22-15.92L411.22-15.92Q410.17-17.92 408.17-18.74 406.17-19.56 403.09-19.56L403.09-19.56Q400.72-19.56 399.39-18.71 398.06-17.87 398.06-16.36L398.06-16.36Q398.06-15.58 398.56-15.09 399.06-14.6 400.04-14.28L400.04-14.28Q400.85-14.01 401.91-13.87 402.97-13.72 404.66-13.55L404.66-13.55Q407.02-13.28 408.48-13.05 409.93-12.82 411.22-12.35L411.22-12.35Q413.18-11.65 414.26-10.3 415.35-8.96 415.35-6.76L415.35-6.76Q415.35-4.57 414.24-2.92 413.13-1.27 410.99-0.37 408.85 0.54 405.88 0.54L405.88 0.54Q403.24 0.54 401.24-0.2 399.24-0.93 397.75-2.42L397.75-2.42 397.75-1.05Q397.75-0.2 397.33 0.17 396.92 0.54 395.91 0.54L395.91 0.54Q394.91 0.54 394.5 0.17 394.08-0.2 394.08-1.05L394.08-1.05 394.08-6.91Q394.08-7.76 394.5-8.13 394.91-8.5 395.91-8.5L395.91-8.5Q396.43-8.5 396.72-8.26 397.01-8.03 397.23-7.5L397.23-7.5Q398.11-5.15 400.16-4.08 402.21-3 405.63-3L405.63-3Q408.46-3 409.98-4.03 411.49-5.05 411.49-6.76L411.49-6.76Q411.49-7.59 410.95-8.13 410.42-8.67 409.42-9.01L409.42-9.01Q408.56-9.28 407.45-9.46 406.34-9.64 404.63-9.81L404.63-9.81Q402.34-10.06 400.8-10.33 399.26-10.6 397.97-11.11L397.97-11.11Q396.18-11.82 395.19-13.07 394.21-14.33 394.21-16.36L394.21-16.36Q394.21-18.48 395.32-20.01 396.43-21.53 398.39-22.31 400.36-23.1 402.85-23.1L402.85-23.1Q405.22-23.1 407.18-22.39 409.15-21.68 410.56-20.41L410.56-20.41 410.56-21.51Q410.56-22.36 410.98-22.73 411.39-23.1 412.39-23.1L412.39-23.1Z" opacity="1" transform="matrix(1,0,0,1,0,0)" fill="#111111" class="wordmark-text-0" data-fill-palette-color="primary" id="text-0"></path></svg></g></svg></g></svg></g></svg></g><g transform="matrix(1,0,0,1,0,0.10082984544323992)"><svg viewBox="0 0 38.5053046972464 40.331938177296145" height="40.331938177296145" width="38.5053046972464"><g><svg version="1.0" xmlns="http://www.w3.org/2000/svg" xmlns:xlink="http://www.w3.org/1999/xlink" x="0" y="0" viewBox="0 0 95.471 100" enable-background="new 0 0 95.471 100" xml:space="preserve" id="icon-0" width="38.5053046972464" height="40.331938177296145" class="icon-icon-0" data-fill-palette-color="accent"><path d="M47.735 0C47.652 2.825 45.997 13.412 27.936 30.934 10.554 47.797 2.439 49.824 0 50 2.439 50.178 10.554 52.204 27.936 69.066 45.997 86.589 47.652 97.177 47.735 100 47.818 97.177 49.474 86.589 67.533 69.066 84.917 52.204 93.031 50.178 95.471 50 93.032 49.824 84.917 47.797 67.533 30.934 49.475 13.412 47.819 2.825 47.735 0" fill="#111111" data-fill-palette-color="accent"></path></svg></g></svg></g></svg></g><defs></defs></svg><rect width="395.5199999999999" height="35.10326928115335" fill="none" stroke="none" visibility="hidden"></rect></g></svg></g></svg>